<svg width="120" height="48" viewBox="0 0 120 48" fill="none" xmlns="http://www.w3.org/2000/svg">
<g id="Group 1">
<path id="Vector" d="M42.6411 30.5048C40.1965 22.7525 37.811 15.1428 35.3812 7.54487C35.1185 6.72572 34.6756 5.92735 34.1589 5.23879C32.9189 3.58862 31.5845 2.01265 30.0581 0.122079C31.2538 0.122079 32.1513 0.122079 33.0459 0.122079C36.1931 0.119111 39.3433 0.157695 42.4905 0.0834963C43.5622 0.0597529 44.0198 0.398097 44.3269 1.44578C45.6731 6.03123 47.1168 10.587 48.5281 15.1517C48.6727 15.6206 48.8528 16.0777 49.1038 16.7929C50.8811 14.3949 52.5521 12.157 54.2055 9.90734C56.3666 6.96613 58.507 4.01304 60.6682 1.07182C61.6602 -0.278591 64.9078 -0.379501 65.9942 0.920452C67.2578 2.4341 68.5362 3.9418 69.6906 5.53558C70.0331 6.01045 70.2102 6.82663 70.0744 7.39351C68.3118 14.7273 66.4932 22.0432 64.6391 29.3532C64.5269 29.7925 64.0073 30.4454 63.6619 30.4543C60.4733 30.5404 57.2818 30.5048 53.9014 30.5048C54.7457 26.9967 55.5547 23.64 56.3607 20.2832C56.2721 20.2417 56.1865 20.1972 56.0979 20.1556C54.3088 22.6071 52.3396 24.9518 50.7778 27.5428C49.3665 29.8815 47.663 31.0153 44.941 30.5226C44.2294 30.395 43.4766 30.5018 42.6381 30.5018L42.6411 30.5048Z" fill="#151A30"/>
<path id="Vector_2" d="M68.0399 0.160693H84.8005C84.1539 2.87932 83.5369 5.48516 82.8077 8.55103C83.8941 7.49742 84.6854 6.76137 85.4412 5.98971C87.0945 4.30096 88.7094 2.56768 90.3923 0.908612C90.7761 0.528717 91.3695 0.145854 91.8714 0.13695C95.4585 0.0746234 99.0486 0.110239 102.639 0.12211C102.822 0.12211 103.005 0.205212 103.456 0.315026C98.467 5.20321 93.6103 9.9608 88.6769 14.7926C92.329 19.9657 95.9309 25.0616 99.6863 30.3772H81.6621C82.9228 28.8428 84.0831 27.43 85.3113 25.9342C83.7111 23.5153 82.1227 21.1113 80.3454 18.4224C79.6693 21.1054 79.067 23.4678 78.4795 25.8303C78.1695 27.0709 77.9392 28.3382 77.5436 29.5521C77.4166 29.9379 76.8852 30.4514 76.528 30.4573C73.3867 30.5285 70.2454 30.4989 66.8442 30.4989C67.3402 28.4184 67.786 26.4833 68.2643 24.5571C69.711 18.737 71.1901 12.9228 72.5836 7.09081C72.7135 6.54768 72.5039 5.75821 72.1644 5.29818C70.9155 3.60646 69.5427 2.00971 68.0429 0.157725L68.0399 0.160693Z" fill="#151A30"/>
<path id="Vector_3" d="M15.8777 12.1334H25.898C25.3873 14.2317 24.9031 16.2143 24.3894 18.3215H14.2923C13.7875 20.3071 13.3092 22.1917 12.7778 24.2871H25.8419C25.219 26.3854 24.6905 28.2522 24.0882 30.0953C24.0203 30.3001 23.545 30.49 23.2586 30.4871C15.8895 30.4247 8.52045 30.3357 1.15136 30.2467C1.06869 30.2467 0.988977 30.1547 0.802979 30.0389C1.8304 25.9343 2.86963 21.794 3.90296 17.6508C4.57019 14.9796 5.19609 12.2996 5.92532 9.64924C6.04637 9.21295 6.59256 8.58375 6.9557 8.57485C10.0911 8.48878 13.2295 8.52439 16.5686 8.52439C16.3324 9.76499 16.1228 10.8483 15.8777 12.1334Z" fill="#151A30"/>
<path id="Vector_4" d="M117.353 8.31657C116.358 12.3915 115.414 16.3122 114.442 20.2239C113.695 23.2363 112.886 26.231 112.175 29.2494C111.962 30.1516 111.64 30.5523 110.634 30.5286C107.643 30.4573 104.649 30.5018 101.425 30.5018C103.262 22.99 105.054 15.6622 106.849 8.3136H117.353V8.31657Z" fill="#151A30"/>
<path id="Vector_5" d="M32.6473 6.92456C34.3567 12.3618 36.1163 17.7872 37.7254 23.2541C37.9763 24.1029 37.6279 25.1714 37.4124 26.1033C37.0788 27.5339 37.0316 29.4541 36.0986 30.202C35.1745 30.941 33.3027 30.5077 31.8472 30.5344C30.0965 30.5671 28.3457 30.5433 26.468 30.5433C28.455 22.5596 30.3976 14.748 32.3403 6.93643C32.4406 6.93346 32.544 6.9305 32.6444 6.92753L32.6473 6.92456Z" fill="#151A30"/>
<path id="Vector_6" d="M31.0351 6.20629C28.6319 6.20629 26.58 6.20629 24.5281 6.20629C19.022 6.20629 13.5188 6.18255 8.01263 6.22706C7.06787 6.23597 6.47445 5.93918 5.94007 5.17048C4.81522 3.55593 3.59885 2.00667 2.26733 0.222943C2.93162 0.160617 3.41875 0.0775146 3.90885 0.0775146C10.9355 0.0834505 17.965 0.0775147 24.9917 0.148745C25.6116 0.154681 26.397 0.525672 26.8103 0.991637C28.2127 2.56761 29.4822 4.2623 31.0351 6.20629Z" fill="#151A30"/>
<path id="Vector_7" d="M51.6426 45.6115H53.8185C54.3765 43.3173 54.9787 41.0439 55.4659 38.7467C55.7257 37.5091 56.1951 36.9541 57.5975 37.0194C60.4908 37.1559 63.3989 37.1826 66.2892 37.0134C68.0164 36.9125 69.0763 37.4942 69.8675 39.3076C68.6659 39.3076 67.5824 39.3076 66.4989 39.3076C65.7608 39.3076 65.0256 39.2958 64.2875 39.3106C62.5663 39.3492 60.7742 39.5777 59.7202 37.4645C59.0943 39.8448 58.4448 42.2221 57.8514 44.6113C57.0336 47.8968 57.0513 47.8998 53.7269 47.8938C52.8914 47.8938 52.0559 47.8938 51.2204 47.8938C48.6518 47.8909 47.5919 46.4841 48.2444 43.9495C48.392 43.3767 48.4983 42.792 48.6696 42.2281C49.2098 40.4562 49.818 38.6873 47.3823 37.1767H53.6709C53.0036 39.9457 52.3423 42.697 51.6426 45.6115Z" fill="#151A30"/>
<path id="Vector_8" d="M85.9403 38.0107C85.3085 39.4264 84.3076 39.6786 81.7656 39.088C81.8955 38.4796 82.0254 37.8682 82.1996 37.0609C82.9554 37.0609 83.726 37.0609 84.4995 37.0609C87.5493 37.0609 90.5961 37.0609 93.6459 37.0609C95.9281 37.0609 97.1031 38.5597 96.554 40.756C96.0403 42.8128 95.5768 44.8814 94.9774 46.9115C94.8564 47.3181 94.2334 47.8256 93.8172 47.8464C91.904 47.9443 89.985 47.9235 88.066 47.876C86.6961 47.8434 85.4915 46.125 85.8163 44.7775C86.1381 43.436 86.392 42.0737 86.7964 40.759C87.1419 39.64 87.0828 38.7348 85.9432 38.0077L85.9403 38.0107ZM89.3148 45.8519C90.2419 45.6175 91.4287 45.6145 91.5616 45.2376C92.2229 43.3678 92.6037 41.4 93.1293 39.2869C92.0841 39.4531 91.0567 38.7408 90.7172 40.109C90.2655 41.9105 89.8344 43.718 89.3148 45.8519Z" fill="#151A30"/>
<path id="Vector_9" d="M34.5691 47.9058C35.3219 46.2022 36.3287 45.4305 38.0676 45.6383C39.3283 45.7896 40.6185 45.668 42.0947 45.668C42.6202 43.6409 43.1516 41.59 43.7007 39.465C42.3013 39.1296 41.2208 39.0613 41.0997 40.8213C41.082 41.0647 41.0111 41.3051 40.9521 41.5455C40.4089 43.7398 38.9199 44.74 36.4852 44.5461C36.7125 43.5489 36.9192 42.5694 37.1613 41.5989C37.5077 40.2 37.1445 38.6874 36.0718 37.061C38.6906 37.061 41.1617 37.0402 43.6328 37.0728C44.5599 37.0847 45.4869 37.1975 46.4081 37.3162C47.3764 37.4409 47.7927 38.0404 47.5654 38.9871C46.9926 41.3763 46.411 43.7655 45.7762 46.1369C45.3777 47.6268 44.0816 47.8494 42.8446 47.882C40.1491 47.9503 37.4506 47.9028 34.5691 47.9028V47.9058Z" fill="#151A30"/>
<path id="Vector_10" d="M23.7725 47.6713C20.7552 48.4637 18.538 47.8672 17.3777 44.7034C16.5707 47.048 15.0237 48.0601 12.7366 47.7396C13.33 45.3148 13.9205 42.9048 14.5287 40.4147H18.2339C18.1778 40.8807 18.1276 41.2962 18.0361 42.05C19.1432 41.1715 20.7699 41.311 20.5987 39.3077C19.3233 39.3077 18.0981 39.2097 16.8935 39.3314C15.1575 39.5065 14.0061 38.8031 13.1647 37.0817C16.3709 37.0817 19.4827 37.0342 22.5945 37.1144C23.43 37.1351 24.5637 39.2364 24.4309 40.106C24.1533 41.9551 23.4418 43.4153 21.0327 43.6052C22.0424 45.104 22.875 46.3357 23.7754 47.6713H23.7725Z" fill="#151A30"/>
<path id="Vector_11" d="M24.2832 37.0639C27.4983 37.0639 30.4773 37.0342 33.4532 37.0787C34.5545 37.0965 35.8565 38.9841 35.5907 40.0823C35.0357 42.3735 34.4954 44.6677 33.837 46.9293C33.7189 47.33 33.0812 47.8226 32.6561 47.8464C30.7991 47.9532 28.9302 47.9325 27.0673 47.9057C25.5527 47.885 24.3127 46.1576 24.6729 44.6499C24.9002 43.6942 25.1335 42.7415 25.352 41.7859C25.7279 40.1416 25.3716 38.5676 24.2832 37.0639ZM31.9298 39.554C31.8294 39.4086 31.732 39.2631 31.6316 39.1177C30.9792 39.3581 29.8956 39.4442 29.7451 39.8656C29.0956 41.6909 28.7176 43.6141 28.2157 45.6026H30.4241C30.9349 43.5458 31.4309 41.5484 31.9298 39.551V39.554Z" fill="#151A30"/>
<path id="Vector_12" d="M6.72843 40.3256V41.8927C7.80604 41.2041 9.33241 41.2872 9.22317 39.3106C7.88575 39.3106 6.51586 39.183 5.17844 39.3432C3.47198 39.548 2.67189 38.6844 2.0578 37.0757C5.1253 37.0757 8.09537 37.0223 11.0566 37.1054C11.9925 37.1321 13.1055 39.1889 12.9727 40.1535C12.7571 41.7235 12.149 42.8751 10.5193 43.433C9.27631 43.8604 8.1308 44.5757 6.93214 45.1396C6.06415 45.5462 5.31425 45.9855 5.1932 47.1044C5.16073 47.3923 4.64406 47.8315 4.33111 47.8493C2.93169 47.9295 1.52342 47.8849 0 47.7454C2.11979 46.1695 2.29989 43.7714 2.80179 41.5662C3.02617 40.5838 3.3716 40.2247 4.33702 40.3138C5.06625 40.382 5.80729 40.3286 6.72548 40.3286L6.72843 40.3256Z" fill="#151A30"/>
<path id="Vector_13" d="M101.201 43.163C100.853 44.4927 100.522 45.4513 100.366 46.4396C100.188 47.5675 99.6776 48.0631 98.5174 47.9295C97.8088 47.8494 97.0855 47.9147 96.1938 47.9147C97.0677 44.3621 97.8619 41.038 98.727 37.7347C98.8008 37.4468 99.3204 37.1203 99.657 37.0907C100.628 37.0046 101.611 37.061 102.692 37.061C104.159 40.5839 105.615 44.0831 107.056 47.5437C102.707 49.2711 102.497 45.7184 101.195 43.163H101.201Z" fill="#151A30"/>
<path id="Vector_14" d="M107.442 6.15295C107.858 4.36922 108.201 2.73983 108.641 1.13715C108.747 0.745382 109.166 0.151797 109.453 0.145861C112.68 0.0746304 115.907 0.101342 119.393 0.101342C118.88 2.26199 118.419 4.19115 117.953 6.15295H107.439H107.442Z" fill="#151A30"/>
<path id="Vector_15" d="M61.1197 40.3969H64.8633C64.45 42.145 64.0573 43.8041 63.6263 45.6353H68.4534C67.6001 47.1074 66.8325 48.1758 65.0965 47.9117C64.3762 47.8019 63.6292 47.8968 62.8941 47.8939C60.8363 47.882 59.6435 46.3387 60.1425 44.3353C60.4643 43.0502 60.7802 41.7651 61.1168 40.3939L61.1197 40.3969Z" fill="#151A30"/>
<path id="Vector_16" d="M73.3957 40.3881H77.1452C76.5518 42.896 75.979 45.3089 75.3856 47.8079H70.0034C72.7255 45.852 72.5602 43.0058 73.3957 40.3881Z" fill="#151A30"/>
<path id="Vector_17" d="M85.1845 40.3257C84.5793 42.8217 84.042 45.107 83.4427 47.3745C83.3836 47.6031 82.9555 47.8702 82.6898 47.8821C81.3347 47.9325 79.9766 47.9058 78.1609 47.9058C80.4253 45.9499 80.5375 43.4717 81.2107 41.2072C81.3199 40.8392 81.875 40.4266 82.2735 40.3673C83.1327 40.2396 84.0243 40.3287 85.1845 40.3287V40.3257Z" fill="#151A30"/>
<path id="Vector_18" d="M80.192 39.2928C77.4581 39.2928 74.7154 39.4204 71.9992 39.2097C71.2729 39.1533 70.6263 38.067 69.9443 37.4557C70.0152 37.3251 70.086 37.1974 70.1569 37.0669C72.876 37.0669 75.604 36.9392 78.3084 37.15C79.0642 37.2093 79.7432 38.257 80.4547 38.8506C80.3662 38.999 80.2805 39.1474 80.192 39.2958V39.2928Z" fill="#151A30"/>
<path id="Vector_19" d="M107.141 45.0596C106.536 43.6112 105.7 42.2104 105.402 40.6997C105.196 39.649 105.656 38.4233 106.002 37.337C106.072 37.1115 106.952 37.1055 107.466 37.0669C108.048 37.0224 108.632 37.058 109.444 37.058C108.765 39.8449 108.121 42.4745 107.478 45.1071L107.141 45.0596Z" fill="#151A30"/>
</g>
</svg>
