<svg width="20" height="20" viewBox="0 0 20 20" fill="none" xmlns="http://www.w3.org/2000/svg">
<rect width="20" height="20" fill="#484848"/>
<g id="Home" clip-path="url(#clip0_0_1)">
<rect width="1440" height="2815" transform="translate(-247 -590)" fill="#F7F9FC"/>
<rect id="Rectangle 1" x="-248" y="-590" width="1443" height="696" fill="url(#paint0_linear_0_1)"/>
<g id="Group 3">
<g id="Group 2">
<g id="Frame 3">
<g id="Frame 2">
<rect id="Rectangle 3" x="-8" y="-14" width="36" height="48" rx="8" fill="white"/>
<g id="ticket" clip-path="url(#clip1_0_1)">
<path id="Vector" fill-rule="evenodd" clip-rule="evenodd" d="M17.5946 5.71623L19.6149 7.73653C19.9273 8.04895 19.9273 8.55548 19.6149 8.8679L14.3314 14.1514L8.8669 19.6159C8.55448 19.9283 8.04795 19.9283 7.73553 19.6159L5.71522 17.5956C6.65248 16.6584 6.65248 15.1388 5.71522 14.2015C4.77796 13.2643 3.25837 13.2643 2.32111 14.2015L0.38307 12.2635C0.0706501 11.951 0.070651 11.4445 0.38307 11.1321L0.384521 11.1306L5.79921 5.74365L11.1296 0.385555C11.4413 0.0723283 11.9478 0.0710173 12.261 0.382627L12.2625 0.384089L14.2005 2.32212C13.2632 3.25937 13.2632 4.77897 14.2005 5.71623C15.1378 6.65349 16.6574 6.65349 17.5946 5.71623ZM8.29805 4.33925L9.14974 5.19095C9.30595 5.34716 9.55922 5.34716 9.71543 5.19095C9.87164 5.03474 9.87164 4.78147 9.71543 4.62526L8.86373 3.77357C8.70752 3.61736 8.45426 3.61736 8.29805 3.77357C8.14184 3.92978 8.14184 4.18305 8.29805 4.33925ZM16.2208 11.1306L15.3723 10.2821C15.2161 10.1259 14.9628 10.1259 14.8066 10.2821C14.6504 10.4383 14.6504 10.6916 14.8066 10.8478L15.6551 11.6963C15.8113 11.8525 16.0646 11.8525 16.2208 11.6963C16.377 11.5401 16.377 11.2869 16.2208 11.1306ZM10.2811 6.32232L11.4125 7.45369C11.5687 7.6099 11.822 7.6099 11.9782 7.45369C12.1344 7.29748 12.1344 7.04421 11.9782 6.88801L10.8468 5.75663C10.6906 5.60042 10.4373 5.60042 10.2811 5.75663C10.1249 5.91284 10.1249 6.16611 10.2811 6.32232ZM12.5439 8.58506L13.6752 9.71643C13.8314 9.87264 14.0847 9.87264 14.2409 9.71643C14.3971 9.56022 14.3971 9.30696 14.2409 9.15075L13.1095 8.01938C12.9533 7.86317 12.7001 7.86317 12.5439 8.01938C12.3876 8.17559 12.3876 8.42885 12.5439 8.58506Z" fill="#151A30"/>
</g>
</g>
</g>
</g>
</g>
</g>
<defs>
<linearGradient id="paint0_linear_0_1" x1="473.5" y1="-590" x2="473.5" y2="106" gradientUnits="userSpaceOnUse">
<stop stop-color="#1D223E"/>
<stop offset="1" stop-color="#151A30"/>
</linearGradient>
<clipPath id="clip0_0_1">
<rect width="1440" height="2815" fill="white" transform="translate(-247 -590)"/>
</clipPath>
<clipPath id="clip1_0_1">
<rect width="20" height="20" fill="white"/>
</clipPath>
</defs>
</svg>
