<svg width="16" height="16" viewBox="0 0 16 16" fill="none" xmlns="http://www.w3.org/2000/svg">
<g id="vuesax/bold/facebook">
<g id="facebook">
<path id="Vector" d="M14.6663 10.7935C14.6663 13.2202 13.2197 14.6668 10.793 14.6668H9.99967C9.63301 14.6668 9.33301 14.3668 9.33301 14.0002V10.1535C9.33301 9.9735 9.47967 9.82017 9.65967 9.82017L10.833 9.80017C10.9263 9.7935 11.0063 9.72684 11.0263 9.6335L11.2597 8.36017C11.2797 8.24017 11.1863 8.12683 11.0597 8.12683L9.63967 8.14683C9.453 8.14683 9.30635 8.00017 9.29968 7.82017L9.27301 6.18683C9.27301 6.08016 9.35967 5.98684 9.473 5.98684L11.073 5.96016C11.1863 5.96016 11.273 5.87351 11.273 5.76017L11.2463 4.16016C11.2463 4.04682 11.1597 3.96016 11.0463 3.96016L9.24634 3.98684C8.13967 4.00684 7.25968 4.9135 7.27968 6.02016L7.31301 7.8535C7.31968 8.04016 7.17302 8.18684 6.98635 8.1935L6.18634 8.20683C6.07301 8.20683 5.98635 8.29349 5.98635 8.40682L6.00635 9.6735C6.00635 9.78684 6.09301 9.8735 6.20634 9.8735L7.00635 9.86017C7.19301 9.86017 7.33967 10.0068 7.34633 10.1868L7.40633 13.9868C7.413 14.3602 7.113 14.6668 6.73967 14.6668H5.20634C2.77967 14.6668 1.33301 13.2202 1.33301 10.7868V5.20683C1.33301 2.78016 2.77967 1.3335 5.20634 1.3335H10.793C13.2197 1.3335 14.6663 2.78016 14.6663 5.20683V10.7935Z" fill="#E4E9F2"/>
</g>
</g>
</svg>
