<svg width="16" height="16" viewBox="0 0 16 16" fill="none" xmlns="http://www.w3.org/2000/svg">
<g id="vuesax/bold/instagram">
<g id="instagram">
<path id="Vector" d="M10.793 1.3335H5.20634C2.77967 1.3335 1.33301 2.78016 1.33301 5.20683V10.7868C1.33301 13.2202 2.77967 14.6668 5.20634 14.6668H10.7863C13.213 14.6668 14.6597 13.2202 14.6597 10.7935V5.20683C14.6663 2.78016 13.2197 1.3335 10.793 1.3335ZM7.99967 10.5868C6.57301 10.5868 5.41301 9.42683 5.41301 8.00016C5.41301 6.5735 6.57301 5.4135 7.99967 5.4135C9.42634 5.4135 10.5863 6.5735 10.5863 8.00016C10.5863 9.42683 9.42634 10.5868 7.99967 10.5868ZM11.9463 4.58683C11.913 4.66683 11.8663 4.74016 11.8063 4.80683C11.7397 4.86683 11.6663 4.9135 11.5863 4.94683C11.5063 4.98016 11.4197 5.00016 11.333 5.00016C11.153 5.00016 10.9863 4.9335 10.8597 4.80683C10.7997 4.74016 10.753 4.66683 10.7197 4.58683C10.6863 4.50683 10.6663 4.42016 10.6663 4.3335C10.6663 4.24683 10.6863 4.16016 10.7197 4.08016C10.753 3.9935 10.7997 3.92683 10.8597 3.86016C11.013 3.70683 11.2463 3.6335 11.4597 3.68016C11.5063 3.68683 11.5463 3.70016 11.5863 3.72016C11.6263 3.7335 11.6663 3.7535 11.7063 3.78016C11.7397 3.80016 11.773 3.8335 11.8063 3.86016C11.8663 3.92683 11.913 3.9935 11.9463 4.08016C11.9797 4.16016 11.9997 4.24683 11.9997 4.3335C11.9997 4.42016 11.9797 4.50683 11.9463 4.58683Z" fill="#E4E9F2"/>
</g>
</g>
</svg>
