<svg width="16" height="16" viewBox="0 0 16 16" fill="none" xmlns="http://www.w3.org/2000/svg">
<g id="vuesax/bold/sms">
<g id="sms">
<path id="Vector" d="M11.9584 6.78417L11.9584 6.78419L11.9616 6.78155C12.3868 6.43614 12.4548 5.80606 12.1131 5.37818C11.7695 4.93242 11.13 4.87473 10.7063 5.21718L8.62096 6.88282L8.62003 6.88356C8.47137 7.00288 8.24643 7.0785 7.99634 7.0785C7.74625 7.0785 7.52131 7.00288 7.37265 6.88356L7.37172 6.88282L5.28641 5.21724C4.84811 4.86284 4.22307 4.95538 3.88495 5.37153L3.88488 5.37148L3.879 5.37901C3.54617 5.80503 3.611 6.43485 4.03771 6.78155L4.0377 6.78157L4.04097 6.78417L6.12579 8.44937C6.66078 8.88468 7.34298 9.08683 7.99967 9.08683C8.65925 9.08683 9.33317 8.8831 9.87224 8.45043C9.87241 8.45029 9.87257 8.45016 9.87274 8.45002L11.9584 6.78417ZM4.66634 2.8335H11.333C12.2564 2.8335 12.9494 3.06441 13.4094 3.49156C13.8628 3.91248 14.1663 4.59546 14.1663 5.66683V10.3335C14.1663 11.4049 13.8628 12.0878 13.4094 12.5088C12.9494 12.9359 12.2564 13.1668 11.333 13.1668H4.66634C3.74299 13.1668 3.04991 12.9359 2.5899 12.5088C2.1366 12.0878 1.83301 11.4049 1.83301 10.3335V5.66683C1.83301 4.59546 2.1366 3.91248 2.5899 3.49156C3.04991 3.06441 3.74299 2.8335 4.66634 2.8335Z" fill="#E4E9F2" stroke="#E4E9F2"/>
</g>
</g>
</svg>
