<svg width="182" height="182" viewBox="0 0 182 182" fill="none" xmlns="http://www.w3.org/2000/svg">
<g id="Group 233">
<g id="Group 232">
<g id="Group 231">
<rect id="image 1" x="13" y="15" width="156" height="156" rx="8" fill="#101426"/>
</g>
</g>
<g id="Vector" filter="url(#filter0_d_681_2279)">
<path d="M91.0002 159.383C127.662 159.383 157.383 129.662 157.383 93.0002C157.383 56.3379 127.662 26.6172 91.0002 26.6172C54.3379 26.6172 24.6172 56.3379 24.6172 93.0002C24.6172 129.662 54.3379 159.383 91.0002 159.383Z" fill="#151A30"/>
</g>
<g id="Vector_2" filter="url(#filter1_d_681_2279)">
<path fill-rule="evenodd" clip-rule="evenodd" d="M93.4612 159.291C94.2071 159.278 94.9527 159.252 95.6978 159.214C97.9037 159.058 100.1 158.792 102.28 158.417C104.461 158.039 106.622 157.552 108.755 156.957C110.889 156.368 112.992 155.673 115.056 154.874C117.117 154.071 119.137 153.166 121.107 152.162C123.079 151.157 125 150.055 126.862 148.858C128.724 147.664 130.526 146.377 132.259 145.003C133.994 143.627 135.66 142.164 137.248 140.622C138.837 139.079 140.346 137.459 141.773 135.766C143.198 134.072 144.537 132.308 145.786 130.48C147.037 128.654 148.196 126.765 149.259 124.823C150.321 122.881 151.286 120.887 152.149 118.848C153.01 116.811 153.768 114.731 154.421 112.618C155.073 110.502 155.618 108.355 156.055 106.184C156.498 104.015 156.832 101.825 157.056 99.6226C157.275 97.4217 157.384 95.2113 157.383 92.9996C157.382 91.4321 157.326 89.8652 157.214 88.3017C157.059 86.0958 156.793 83.899 156.418 81.7196C156.408 81.677 156.397 81.6345 156.387 81.5919L141.318 66.5179C141.622 66.1412 141.813 65.686 141.868 65.2051C141.923 64.7243 141.84 64.2376 141.629 63.802C141.419 63.3663 141.088 62.9996 140.677 62.7445C140.266 62.4894 139.79 62.3565 139.306 62.3613C138.73 62.3661 138.172 62.5659 137.723 62.9281L127.562 70.8481L116.516 59.8081C116.517 59.4685 116.449 59.1322 116.317 58.8191C116.186 58.506 115.993 58.2222 115.751 57.9844C115.508 57.7467 115.221 57.5597 114.905 57.4344C114.589 57.3091 114.252 57.2481 113.912 57.2549C105.604 57.4336 97.1173 57.4285 88.5846 57.3826C80.0416 57.3417 71.4526 57.2549 62.9148 57.2549C62.2376 57.2549 61.5882 57.5239 61.1094 58.0027C60.6306 58.4815 60.3616 59.1309 60.3616 59.8081V126.191C60.3616 126.868 60.6306 127.518 61.1094 127.996C61.5882 128.475 62.2376 128.744 62.9148 128.744L93.4612 159.291Z" fill="#222B45"/>
</g>
<g id="Vector_3" filter="url(#filter2_d_681_2279)">
<path fill-rule="evenodd" clip-rule="evenodd" d="M62.9148 57.2549C62.2376 57.2549 61.5882 57.5239 61.1094 58.0027C60.6306 58.4815 60.3616 59.1309 60.3616 59.8081V126.191C60.3616 126.868 60.6306 127.518 61.1094 127.996C61.5882 128.475 62.2376 128.744 62.9148 128.744H113.979C114.654 128.742 115.301 128.471 115.777 127.993C116.254 127.514 116.522 126.866 116.522 126.191V103.212H111.425V123.638H65.468V62.3613C80.7871 62.4124 96.3003 62.6166 111.425 62.3613V67.8966H116.542L116.522 65.3434V59.8081C116.522 59.4685 116.454 59.1322 116.322 58.8191C116.191 58.5059 115.998 58.2222 115.756 57.9844C115.513 57.7467 115.226 57.5597 114.91 57.4344C114.594 57.3091 114.257 57.2481 113.917 57.2549C97.296 57.6124 80.0007 57.2549 62.9148 57.2549ZM139.306 62.3613C138.73 62.3661 138.172 62.5659 137.723 62.9281L93.982 96.9826L80.1948 80.9281C79.9762 80.6729 79.7094 80.4633 79.4098 80.3113C79.1102 80.1592 78.7836 80.0676 78.4486 80.0418C78.1136 80.0159 77.7768 80.0563 77.4574 80.1607C77.138 80.265 76.8423 80.4312 76.5871 80.6498C76.0718 81.0913 75.753 81.7194 75.7008 82.396C75.6486 83.0726 75.8673 83.7422 76.3088 84.2575L93.262 103.994L140.853 66.9621C141.283 66.6401 141.6 66.1909 141.759 65.6784C141.919 65.1659 141.913 64.6162 141.742 64.1073C141.571 63.5985 141.245 63.1564 140.808 62.8438C140.372 62.5313 139.848 62.3642 139.311 62.3664L139.306 62.3613Z" fill="#E4E9F2"/>
</g>
</g>
<defs>
<filter id="filter0_d_681_2279" x="0.617188" y="0.617188" width="180.766" height="180.766" filterUnits="userSpaceOnUse" color-interpolation-filters="sRGB">
<feFlood flood-opacity="0" result="BackgroundImageFix"/>
<feColorMatrix in="SourceAlpha" type="matrix" values="0 0 0 0 0 0 0 0 0 0 0 0 0 0 0 0 0 0 127 0" result="hardAlpha"/>
<feOffset dy="-2"/>
<feGaussianBlur stdDeviation="12"/>
<feComposite in2="hardAlpha" operator="out"/>
<feColorMatrix type="matrix" values="0 0 0 0 0.890196 0 0 0 0 0.14902 0 0 0 0 0.509804 0 0 0 0.08 0"/>
<feBlend mode="normal" in2="BackgroundImageFix" result="effect1_dropShadow_681_2279"/>
<feBlend mode="normal" in="SourceGraphic" in2="effect1_dropShadow_681_2279" result="shape"/>
</filter>
<filter id="filter1_d_681_2279" x="36.3616" y="31.2544" width="145.021" height="150.036" filterUnits="userSpaceOnUse" color-interpolation-filters="sRGB">
<feFlood flood-opacity="0" result="BackgroundImageFix"/>
<feColorMatrix in="SourceAlpha" type="matrix" values="0 0 0 0 0 0 0 0 0 0 0 0 0 0 0 0 0 0 127 0" result="hardAlpha"/>
<feOffset dy="-2"/>
<feGaussianBlur stdDeviation="12"/>
<feComposite in2="hardAlpha" operator="out"/>
<feColorMatrix type="matrix" values="0 0 0 0 0.890196 0 0 0 0 0.14902 0 0 0 0 0.509804 0 0 0 0.08 0"/>
<feBlend mode="normal" in2="BackgroundImageFix" result="effect1_dropShadow_681_2279"/>
<feBlend mode="normal" in="SourceGraphic" in2="effect1_dropShadow_681_2279" result="shape"/>
</filter>
<filter id="filter2_d_681_2279" x="36.3616" y="31.2544" width="129.513" height="119.49" filterUnits="userSpaceOnUse" color-interpolation-filters="sRGB">
<feFlood flood-opacity="0" result="BackgroundImageFix"/>
<feColorMatrix in="SourceAlpha" type="matrix" values="0 0 0 0 0 0 0 0 0 0 0 0 0 0 0 0 0 0 127 0" result="hardAlpha"/>
<feOffset dy="-2"/>
<feGaussianBlur stdDeviation="12"/>
<feComposite in2="hardAlpha" operator="out"/>
<feColorMatrix type="matrix" values="0 0 0 0 0.890196 0 0 0 0 0.14902 0 0 0 0 0.509804 0 0 0 0.08 0"/>
<feBlend mode="normal" in2="BackgroundImageFix" result="effect1_dropShadow_681_2279"/>
<feBlend mode="normal" in="SourceGraphic" in2="effect1_dropShadow_681_2279" result="shape"/>
</filter>
</defs>
</svg>
